<svg width="932" height="471" viewBox="0 0 932 471" fill="none" xmlns="http://www.w3.org/2000/svg">
<path d="M283.297 16.1868C284.054 14.8099 285.415 13.8693 286.971 13.647L290.874 13.0894C291.29 13.03 291.711 13.0233 292.129 13.0693L349.166 19.353C350.022 19.4473 350.808 19.8697 351.359 20.5314V20.5314C352.327 21.6919 352.392 23.358 351.518 24.5903L214.922 217.201C214.322 218.046 214 219.057 214 220.093V222.497C214 223.478 214.288 224.436 214.828 225.254L359.29 443.912C360.302 445.444 360.176 447.461 358.981 448.855V448.855C358.348 449.594 357.472 450.085 356.511 450.239L303.404 458.774C302.486 458.922 301.545 458.811 300.687 458.453L297.648 457.187C296.582 456.743 295.703 455.943 295.16 454.924L172.588 225.103C172.202 224.379 172 223.571 172 222.75V219.785C172 218.942 172.213 218.113 172.619 217.375L283.297 16.1868Z" fill="#75C158"/>
<path d="M121 134.577C121 132.601 122.601 131 124.577 131H145.409C147.034 131 148.557 131.789 149.494 133.117L171.085 163.704C171.68 164.547 172 165.554 172 166.587V171.733C172 172.564 171.793 173.383 171.396 174.114L159.957 195.233C159.367 196.322 158.229 197 156.99 197V197C155.762 197 154.631 196.333 154.037 195.258L121.447 136.308C121.154 135.778 121 135.182 121 134.577V134.577Z" fill="#75C158"/>
<path d="M119 318.373C119 317.799 119.136 317.234 119.397 316.723L154.452 248.073C154.788 247.415 155.465 247 156.205 247V247C156.991 247 157.702 247.468 158.013 248.189L169.592 275.053C169.861 275.678 170 276.351 170 277.032V282.688C170 283.548 169.778 284.394 169.356 285.143L150.693 318.269C150.24 319.074 149.573 319.737 148.765 320.186L146.633 321.371C145.89 321.783 145.054 322 144.204 322H122.627C120.624 322 119 320.376 119 318.373V318.373Z" fill="#75C158"/>
<path d="M486 119C487.657 119 489 120.343 489 122V146C489 147.657 487.657 149 486 149H380C370.059 149 362 157.059 362 167V207C362 216.941 370.059 225 380 225H486C487.657 225 489 226.343 489 228V253C489 254.657 487.657 256 486 256H364C341.909 256 324 238.091 324 216V159C324 136.909 341.909 119 364 119H486Z" fill="white"/>
<path d="M621.277 186.425L691 251.081V253C691 254.657 689.657 256 688 256H649.913L594.5 205L537.615 256H504C502.343 256 501 254.657 501 253V249.135L571.5 185L506 124.183V122C506 120.343 507.343 119 509 119H547.186L598.648 166.104L650.999 119H686C687.657 119 689 120.343 689 122V123.689L621.277 186.425Z" fill="white"/>
<path d="M759 80C760.657 80 762 81.3431 762 83V119H807C808.657 119 810 120.343 810 122V145C810 146.657 808.657 148 807 148H762V208C762 217.941 770.059 226 780 226H808C809.657 226 811 227.343 811 229V253C811 254.657 809.657 256 808 256H766C743.909 256 726 238.091 726 216V148H701C699.343 148 698 146.657 698 145V122C698 120.343 699.343 119 701 119H726V83C726 81.3431 727.343 80 729 80H759Z" fill="white"/>
<path d="M372 284C373.105 284 374 284.895 374 286V291C374 292.105 373.105 293 372 293H338C336.895 293 336 293.895 336 295V298C336 299.105 336.895 300 338 300H367C371.971 300 376 304.029 376 309V316C376 320.971 371.971 325 367 325H327C325.895 325 325 324.105 325 323V318C325 316.895 325.895 316 327 316H364C365.105 316 366 315.105 366 314V310C366 308.895 365.105 308 364 308H334C329.029 308 325 303.971 325 299V293C325 288.029 329.029 284 334 284H372Z" fill="white"/>
<path fill-rule="evenodd" clip-rule="evenodd" d="M435 284C441.627 284 447 289.373 447 296V313C447 319.627 441.627 325 435 325H403C396.373 325 391 319.627 391 313V296C391 289.373 396.373 284 403 284H435ZM406 293C403.791 293 402 294.791 402 297V312C402 314.209 403.791 316 406 316H432C434.209 316 436 314.209 436 312V297C436 294.791 434.209 293 432 293H406Z" fill="white"/>
<path d="M491.103 268.005C491.607 268.056 492 268.482 492 269V275C492 275.518 491.607 275.944 491.103 275.995L491 276H482C479.791 276 478 277.791 478 280V284H491C491.552 284 492 284.448 492 285V292C492 292.552 491.552 293 491 293H478V324C478 324.552 477.552 325 477 325H468C467.448 325 467 324.552 467 324V293H460C459.448 293 459 292.552 459 292V285C459 284.448 459.448 284 460 284H467V280C467 273.373 472.373 268 479 268H491L491.103 268.005Z" fill="white"/>
<path d="M521.354 273C521.853 273 522.257 273.397 522.257 273.886V284.523H535.796C536.295 284.523 536.699 284.92 536.699 285.409V292.205C536.699 292.694 536.295 293.091 535.796 293.091H522.257V310.818C522.257 313.755 524.681 316.136 527.673 316.136H536.097C536.596 316.136 537 316.533 537 317.023V324.114C537 324.603 536.596 325 536.097 325H523.46C516.813 325 511.425 319.709 511.425 313.182V293.091H503.903C503.404 293.091 503 292.694 503 292.205V285.409C503 284.92 503.404 284.523 503.903 284.523H511.425V273.886C511.425 273.397 511.829 273 512.327 273H521.354Z" fill="white"/>
<path d="M630.054 285C630.737 285 631.22 285.67 631.002 286.318L618.219 324.38C618.081 324.789 617.696 325.064 617.265 325.062L609.474 325.013C609.405 325.028 609.333 325.039 609.259 325.039L600.79 325.092C600.358 325.094 599.973 324.819 599.836 324.41L589.746 294.37C589.54 294.178 589.306 294.061 589.03 294.061C588.738 294.061 588.504 294.175 588.309 294.364L578.219 324.41C578.081 324.819 577.696 325.094 577.265 325.092L569.474 325.043C569.405 325.058 569.333 325.069 569.259 325.069L560.79 325.122C560.358 325.125 559.973 324.85 559.836 324.44L547.053 286.379C546.835 285.731 547.318 285.061 548.001 285.061H557.375C557.812 285.061 558.2 285.345 558.33 285.763L567.684 315.697C567.992 316.442 568.352 317.06 569.03 317.061C569.556 317.061 569.93 316.637 570.243 316.07L579.726 285.732C579.856 285.315 580.242 285.03 580.68 285.03H597.375C597.812 285.03 598.2 285.315 598.33 285.732L607.723 315.791C608.023 316.493 608.381 317.06 609.03 317.061C609.543 317.061 609.913 316.658 610.222 316.111L619.726 285.701C619.856 285.284 620.243 285 620.68 285H630.054Z" fill="white"/>
<path fill-rule="evenodd" clip-rule="evenodd" d="M685 285C689.971 285 694 289.029 694 294V322C694 323.657 692.657 325 691 325H650C645.029 325 641 320.971 641 316V310C641 305.029 645.029 301 650 301H683V296C683 294.343 681.657 293 680 293H644C643.448 293 643 292.552 643 292V286C643 285.448 643.448 285 644 285H685ZM654 308C652.895 308 652 308.895 652 310V314C652 315.105 652.895 316 654 316H680C681.657 316 683 314.657 683 313V308H654Z" fill="white"/>
<path d="M719 324C719 324.552 718.552 325 718 325H709C708.448 325 708 324.552 708 324V294C708 289.029 712.029 285 717 285H748V293H725C721.686 293 719 295.686 719 299V324Z" fill="white"/>
<path fill-rule="evenodd" clip-rule="evenodd" d="M804 285C808.971 285 813 289.029 813 294V303C813 306.314 810.314 309 807 309H771V314C771 315.657 772.343 317 774 317H810C810.552 317 811 317.448 811 318V324C811 324.552 810.552 325 810 325H769C764.029 325 760 320.971 760 316V296C760 289.925 764.925 285 771 285H804ZM774 294C772.343 294 771 295.343 771 297V302H800C801.105 302 802 301.105 802 300V296C802 294.895 801.105 294 800 294H774Z" fill="white"/>
</svg>
